@startuml

class ImportTestUI{
}

class ImportTestController{
+readTestsfromFile()
+saveFileTestList()


}

class TestStore{
-List<Test> array
+createTest()
+saveTest()
}

class Test{
-String testCode
-String testNhsNumber
-String clientTin
-TestType testType
-List<ParameterCategory> catList
-List<Parameter> paList
-createdDate
-State state
-List<TestParameter> testParam
-LocalDateTime sampleCreatedDate
-LocalDateTime analysedData
-LocalDateTime diagnosticDate
-LocalDateTime validatedDate
+setSampleCreatedDate()
+setAnalysedData()
+setDiagnosticDate()
+setValidatedDate()
}

class Company{

+getClientList()
+getParameterCategoryList()
+getTestList()
+getTestTypeList()
+getParameterList()
+getClinicalAnalysisLabList()

}

class ImportTests{
-List<String> testFileList
+readTestFromCSV()
+getTestFileList()
+createClientfromFile()
+verifyClinic()
+createTestfromFile()
}

class ClinicalAnalysisLabStore{
-List<ClinicalAnalysisLab> array
+verifyClinicalLabID()
+saveClient()
}
class ClinicalAnalysisLab{
-String name
-String address
-String id
-String tin
-String phoneNumber
+getId()
}
class AuthFacade{
-UserSession userSession
-UserStore users
+addUserWithRole()
}
class UserStore{
-Set<User> users
+create()
}
class User{
-Email id
-Password password
-String name
-Set<UserRole> role
}

class ClientStore{
-List<Client> array
+createClient()
}

class Client{
-String phoneNumber
-String cc
-String nhs
-String tinNumber
-Date birthDate
-String email
-String name
-String sex

}
class ParameterStore{
-List<Parameter> pList
+getParameterExist()
}
class Parameter{
-String name
-String code
-String description
-ParameterCategory cat
+getName()
}
class TestTypeStore{
-List<TestType> array
+getTestTypeExist()
}
class TestType{
-String testID
-String description
-String collectingMethod
-List<ParameterCategory> array
}

class ParameterCategoryStore{
-List<ParameterCategory> pcList
+getParameterCategoryExist()
+createParameterCategory()
}
class ParameterCategory{
-String code
-String name
+getName()
}

ImportTestUI ..> ImportTestController
ImportTestController ..> ImportTests
ImportTestController ..> Company
ImportTests ..> Company
Company "1"-->"*" ClinicalAnalysisLabStore
Company "1"-->"*" ClientStore
Company "1"-->"*"TestStore
Company "1"-->"*" ParameterStore
Company "1"-->"*" ParameterCategoryStore
Company "1"-->"*" TestTypeStore
TestTypeStore "1"-->"*" TestType
Test "1"-->"*" TestType
ParameterStore "1"-->"*" Parameter
ParameterCategoryStore "1"-->"*" ParameterCategory
ClientStore "1"-->"*" Client
TestStore "1"-->"*" Test
Test "1"-->"*" Parameter
Test "1"-->"*" ParameterCategory
ClinicalAnalysisLabStore "1"-->"*" ClinicalAnalysisLab
ImportTests ..> TestTypeStore
ImportTests ..> ParameterCategoryStore
ImportTests ..> ParameterStore
ImportTests ..> ClinicalAnalysisLabStore
ImportTests ..> TestStore
ImportTests ..> ClientStore
Company ..> AuthFacade
AuthFacade ..> UserStore
UserStore ..> User
Parameter "1"-->"*" ParameterCategory


@enduml