@startuml
'https://plantuml.com/class-diagram

hide methods

class Company{
Name
}

class Test{
testCode
nhsCode
state
registeredDate
diagnosisDate
validatedDate
}

class Client{
name
citizenCardNumber
nationalHealthcareServiceNumber
birthdate
sex
taxIdentificationNumber
phoneNumber
e-mail
}

class PerformanceReport{
performanceReportNumber
dateTimeStart
dateTimeEnd
dateLessEffectiveStart
dateLessEffectiveEnd
totalNumberOfClients
totalNumberOfResults
totalNumberOfDiagnostics
totalNumberOfValidations
growthRate
subSequenceMaxSum
}



Company "1" -- "*" Test: performs >
Company "1" -- "*" Client: knows >
Company "1" -- "*" PerformanceReport: performs >
Test "*" - "1" Client: associated with >

@enduml