@startuml
'https://plantuml.com/class-diagram

class RegisterEmployeeUI{
}

class RegisterEmployeeController{
+getRoleList()
+CreateEmployee(name,addresses,phoneNumber,email,soc,role)
+CreateEmployee(name,addresses,phoneNumber,email,soc,role,docInNum)
+saveEmployee(em)
+
}

class AuthFacade{
+addUserWithRole(name,email,password,roleID)
}

class Company{
+getRoleList()
+getEmployeeStore()
}

class EmployeeStore{
+CreateEmployee(name,addresses,phoneNumber,email,soc,role)
+CreateEmployee(name,addresses,phoneNumber,email,soc,role,docInNum)
+validateEmployee(em)
+saveEmployee(em)
-validateEmployee(em)
}

class Employee{
-name: String
-address: String
-phoneNumber: int
-email: String
-soc: int
+Employee(name,addresses,phoneNumber,email,soc,role)
+Employee(name,addresses,phoneNumber,email,soc,role,docInNum)
}

class RoleStore{
-ClinicalChemistryTechnologist: Role
-MedicalLabTechnician: Role
-LaboratoryCoordinator: Role
-Receptionist: Role
-SpecialistDoctor: Role
+getRoleList()
}

class SpecialistDoctor{
-docInNum: int
}
class Role{
roleID: String
roleName: String
}
EmployeeStore --> SpecialistDoctor
RegisterEmployeeController ..> EmployeeStore
RegisterEmployeeUI ..> RegisterEmployeeController
RegisterEmployeeController ..> Company
Company ..> RoleStore
EmployeeStore ..> AuthFacade
Company --> EmployeeStore
EmployeeStore --> Employee
SpecialistDoctor --|> Employee
RoleStore --> Role



@enduml