@startuml

class Covid19Report{
Covid-19 tests performed;
Positive Results to Covid-19 Tests
Number of Covid-19 Cases Per Day
Number of Covid-19 Cases Per Week
Number of Covid-19 Cases Per Month
Number of Covid-19 Cases Per Year
}

class Test{
Client;
Test ID;
Type of Test;
}

class Sample{
Test ID;
Type of Sample;
}

class TypeTest{
Test ID;
}


class Client{
Name;
Citizen card Number;
National Healthcare Service Number
Birth date;
Sex;
Tax Identification Number;
Phone;
E-mail;
}

class Receptionist{
Employee ID;
Organization Role;
Name;
Address;
Phone Number;
E-Mail;
Standard Occupational Classification "SOC";
}

class MedicalLabTechnician{
Employee ID;
Organization Role;
Name;
Address;
Phone Number;
E-Mail;
Standard Occupational Classification "SOC";
}

class SpecialistDoctor{
Employee ID;
Organization Role;
Name;
Address;
Phone Number;
E-Mail;
Standard Occupational Classification "SOC";
Doctor Index Number;
}

class Administrator{
Employee ID;
Organization Role;
Name;
Address;
Phone Number;
E-Mail;
Standard Occupational Classification "SOC";
}

class ClinicalChemistryTechnologist{
Employee ID;
Organization Role;
Name;
Address;
Phone Number;
E-Mail;
Standard Occupational Classification "SOC";
}

class LaboratoryCoordinator{
Employee ID;
Organization Role;
Name;
Address;
Phone Number;
E-Mail;
Standard Occupational Classification "SOC";
}

class ClinicalAnalysisLaboratory{
Laboratory ID;
Name;
Address;
Phone Number;
TIN number;
}

class ChemicalLaboratory{
Name;
Address;
Phone Number;
TIN number;
}

class CompanyHeadquarters{
Address;
Phone Number;
E-Mail;
}

class ChemicalAnalysis{
Client;
}


class TypeSample{
Sample ID;
}

class Company{
Name
}

class BarcodeExternalAPI{
Barcode Number;
}

class LabOrder{
Client;
Doctor;
Type of Test;
Parameters;
}

class Results{
TestID;
Client;
}

class Notification{
SMS;
E-mail;
}

class Report{
TestID;
Client;
Doctor's text;
}

class AutomaticValidationModule{
Validation;
}

class Parameters{
Value;
}

AutomaticValidationModule "1" -- "1" Results : Validate >
ChemicalAnalysis "*" -- "1" ChemicalLaboratory : take place in >
ChemicalLaboratory "1" -- "1" CompanyHeadquarters: is located in >
Client "1" -- "1" LabOrder: to execute the test needs a  >
ClinicalChemistryTechnologist "*" -- "1" ChemicalLaboratory : works on >
ClinicalChemistryTechnologist "1" -- "1" Results : records >
ClinicalChemistryTechnologist "1" -- "1" Sample : analyse >
Company "1" - "1" Covid19Report: sends to NHS >
Company "1" -- "*" Administrator: employs >
Company "1" -- "*" ClinicalAnalysisLaboratory: owns >
Company "1" -- "*" ClinicalChemistryTechnologist: employs >
Company "1" -- "*" LaboratoryCoordinator: employs >
Company "1" -- "*" MedicalLabTechnician: employs >
Company "1" -- "*" Receptionist: employs  >
Company "1" -- "*" SpecialistDoctor: employs >
Company "1" -- "1" ChemicalLaboratory: owns >
Company "1" -- "1" CompanyHeadquarters: owns >
LaboratoryCoordinator "1" -- "*" Report: verifies >
LaboratoryCoordinator "1" -- "1" AutomaticValidationModule : uses >
MedicalLabTechnician "1" -- "*" Sample: collects and records >
MedicalLabTechnician "1" -- "1" ClinicalAnalysisLaboratory : works on >
Notification "1" -- Client : delivered to >
Receptionist "*" -- "1" ClinicalAnalysisLaboratory: works on >
Receptionist "1" -- "*" Client: register in application >
Receptionist "1" -- "*" Test: register in application >
Report "1" -- "1" Notification : is sent by >
Results "1" -- "1" Notification : is sent by >
Sample "*" -- "1" ChemicalLaboratory: are sent >
Sample "1" -- "1" BarcodeExternalAPI : is identified using >
Sample "1" -- "1" Test : is used in >
SpecialistDoctor "1" -- "1" Report: writes >
SpecialistDoctor "1" -- "1" Results: analyse >
Test "1" -- "*" Parameters : has >
TypeSample "1" -- "1" Sample: has a <
TypeTest "*" -- "*" Test : as a <



@enduml